<?xml version="1.0" standalone="no"?>
<!DOCTYPE svg PUBLIC "-//W3C//DTD SVG 20010904//EN"
 "http://www.w3.org/TR/2001/REC-SVG-20010904/DTD/svg10.dtd">
<svg version="1.0" xmlns="http://www.w3.org/2000/svg"
 width="700.000000pt" height="700.000000pt" viewBox="0 0 700.000000 700.000000"
 preserveAspectRatio="xMidYMid meet">
<metadata>
Created by potrace 1.11, written by Peter Selinger 2001-2013
</metadata>
<g transform="translate(0.000000,700.000000) scale(0.100000,-0.100000)"
fill="#000000" stroke="none">
<path d="M3378 6655 c-2 -1 -43 -5 -93 -8 -90 -5 -322 -34 -334 -42 -4 -2 -27
-6 -51 -10 -55 -8 -86 -15 -215 -50 -279 -75 -563 -199 -823 -357 -64 -39
-119 -74 -122 -78 -3 -3 -36 -28 -75 -55 -89 -61 -219 -169 -314 -260 -68 -64
-95 -93 -189 -192 -104 -111 -270 -337 -370 -504 -210 -350 -378 -835 -418
-1203 -2 -23 -7 -57 -10 -76 -10 -54 -13 -555 -4 -597 5 -21 11 -65 13 -98 5
-51 23 -177 31 -210 2 -5 6 -28 10 -50 5 -22 21 -90 37 -152 142 -547 440
-1062 840 -1450 119 -115 159 -152 199 -182 19 -14 37 -29 40 -32 16 -21 242
-180 335 -236 416 -253 884 -405 1380 -450 147 -13 513 -6 615 11 14 3 48 7
75 11 149 18 406 79 570 135 348 119 672 297 955 524 121 98 129 105 265 241
185 184 352 397 482 615 58 97 179 335 218 429 54 130 142 420 161 531 3 14
10 52 16 85 12 66 13 76 22 150 22 171 25 227 25 390 0 221 -5 295 -34 495
-102 682 -450 1346 -949 1809 -22 20 -51 47 -65 60 -41 37 -263 212 -328 257
-128 89 -460 268 -593 320 -30 12 -80 31 -111 43 -53 21 -234 78 -272 86 -9 2
-44 11 -77 19 -92 24 -295 57 -435 72 -51 6 -402 13 -407 9z m367 -459 c28 -4
66 -9 85 -11 19 -3 58 -7 85 -11 93 -11 375 -78 375 -88 0 -6 -2260 -2261
-2268 -2264 -4 -1 -213 204 -466 457 l-459 459 35 63 c61 113 213 342 263 395
5 6 32 38 60 70 78 93 254 263 356 346 261 208 542 360 869 466 93 31 271 75
340 86 19 3 53 8 75 12 172 27 517 38 650 20z m1205 -420 c574 -364 992 -933
1166 -1586 25 -94 33 -127 39 -165 2 -11 8 -47 14 -80 6 -33 13 -80 16 -105 3
-25 8 -67 11 -95 10 -75 12 -359 2 -450 -4 -44 -10 -102 -12 -130 -7 -72 -42
-248 -66 -335 -11 -41 -23 -87 -26 -102 -4 -16 -9 -28 -13 -28 -7 0 -288 277
-1241 1220 -347 344 -723 715 -836 825 -112 111 -204 204 -204 209 0 4 212
218 472 476 l472 468 55 -31 c31 -17 99 -58 151 -91z m-885 -1711 l580 -575
-575 -575 -575 -575 -580 580 -580 580 570 570 c313 313 572 570 575 570 3 -1
266 -259 585 -575z m-1349 -2504 l-464 -464 -78 44 c-82 44 -239 146 -285 183
-15 11 -39 30 -55 41 -15 11 -67 54 -113 95 -394 347 -659 754 -815 1250 -40
129 -91 367 -101 480 -4 41 -9 91 -11 110 -4 47 -4 283 0 340 15 183 48 396
81 515 8 28 19 70 25 94 l12 44 1134 -1134 1134 -1134 -464 -464z m2602 1265
c191 -189 401 -397 466 -462 l119 -117 -28 -51 c-109 -197 -270 -409 -445
-586 -178 -179 -262 -249 -452 -374 -335 -220 -763 -380 -1128 -420 -25 -3
-72 -8 -105 -12 -87 -10 -337 -11 -430 -3 -161 14 -241 24 -310 39 -22 5 -56
12 -75 15 -51 9 -193 46 -208 54 -9 5 344 366 1110 1133 618 619 1126 1126
1131 1127 4 1 164 -154 355 -343z"/>
</g>
</svg>
